# xmcd CD database file
#
# Track frame offsets:
#       150
#       10724
#       23398
#       39951
#       59052
#       70115
#       77841
#       86916
#       100095
#       108843
#
# Disc length: 1596 seconds
#
# Revision: 1
# Processed by: cddbd v1.5.2PL0 Copyright (c) Steve Scherf et al.
# Submitted via: jack 3.1.1
#
DISCID=6e063a0a
DTITLE=Stil Quartet - Old Time Gospel
DYEAR=2010
DGENRE=gospel
TTITLE0=I'm Gonna Walk
TTITLE1=Didn't It Rain
TTITLE2=Jesus Knows
TTITLE3=Swing Low Sweet Chariot
TTITLE4=God Allmighty's Gonna Cut You Down
TTITLE5=Old Time Religion
TTITLE6=Michael Knows
TTITLE7=Whe The Stars (live)
TTITLE8=What Did My Jesus Say
TTITLE9=I've Been Travelling
EXTD=
EXTT0=
EXTT1=
EXTT2=
EXTT3=
EXTT4=
EXTT5=
EXTT6=
EXTT7=
EXTT8=
EXTT9=
PLAYORDER=
